<?xml version="1.0" standalone="no"?><!DOCTYPE svg PUBLIC "-//W3C//DTD SVG 1.1//EN" "http://www.w3.org/Graphics/SVG/1.1/DTD/svg11.dtd"><svg class="icon" width="200px" height="184.84px" viewBox="0 0 1108 1024" version="1.1" xmlns="http://www.w3.org/2000/svg"><path fill="#bfbfbf" d="M1096.963145 415.135135c-10.063882 15.095823-25.159705 20.127764-40.255528 20.127764-10.063882 0-20.127764-5.031941-30.191646-10.063882L553.513514 113.218673 80.511057 430.230958c-25.159705 15.095823-55.351351 10.063882-70.447175-15.095823-15.095823-20.127764-10.063882-55.351351 10.063882-70.447174l503.194103-337.140049c15.095823-10.063882 40.255528-10.063882 55.351352 0l503.194103 337.140049c25.159705 15.095823 30.191646 50.31941 15.095823 70.447174zM905.749386 535.90172c-30.191646 0-50.31941 20.127764-50.319411 50.31941v337.140049H251.597052v-337.140049c0-30.191646-20.127764-50.31941-50.319411-50.31941s-50.31941 20.127764-50.31941 50.31941v387.45946c0 30.191646 20.127764 50.31941 50.31941 50.31941h704.471745c30.191646 0 50.31941-20.127764 50.31941-50.31941v-387.45946c0-30.191646-20.127764-50.31941-50.31941-50.31941z m-261.660934 266.692875c30.191646 0 50.31941-20.127764 50.31941-50.319411v-150.958231c0-30.191646-20.127764-50.31941-50.31941-50.31941H462.938575c-30.191646 0-50.31941 20.127764-50.31941 50.31941v150.958231c0 30.191646 20.127764 50.31941 50.31941 50.319411s50.31941-20.127764 50.31941-50.319411v-100.63882h80.511057v100.63882c0 30.191646 25.159705 50.31941 50.31941 50.319411z" /></svg>