<?xml version="1.0" standalone="no"?><!DOCTYPE svg PUBLIC "-//W3C//DTD SVG 1.1//EN" "http://www.w3.org/Graphics/SVG/1.1/DTD/svg11.dtd"><svg class="icon" width="200px" height="200.00px" viewBox="0 0 1024 1024" version="1.1" xmlns="http://www.w3.org/2000/svg"><path fill="#bfbfbf" d="M281.385377 396.107488a60 60 0 1 0 118.451996-19.212619 60 60 0 1 0-118.451996 19.212619ZM689.6 386.5m-60 0a60 60 0 1 0 120 0 60 60 0 1 0-120 0ZM961 512c0-60.4-11.9-118.9-35.3-174.1-22.6-53.2-55-101.1-96.2-142.1s-89.2-73.3-142.7-95.8C631.4 76.7 572.6 64.9 512 64.9S392.6 76.7 337.3 100c-53.5 22.5-101.5 54.7-142.7 95.8-41.2 41-73.6 88.9-96.2 142.1C74.9 393.1 63 451.6 63 512c0 60.4 11.9 118.9 35.3 174.1 22.6 53.2 55 101.1 96.2 142.1s89.2 73.3 142.7 95.8c55.2 23.2 113.7 35 174.1 35.1h287.5c89.4 0 162.2-72.8 162.2-162.2V512.4v-0.2-0.2z m-60 0.4v284.4c0 27.2-10.7 52.8-30.1 72.2s-45 30.1-72.2 30.1H512c-52.5 0-103.5-10.2-151.5-30.4-46.3-19.5-87.9-47.4-123.7-83-35.7-35.6-63.8-77-83.3-123C133.3 614.9 123 564.3 123 512s10.3-102.9 30.5-150.6c19.6-46.1 47.6-87.5 83.3-123.1 35.7-35.6 77.3-63.5 123.7-83 48-20.2 98.9-30.4 151.5-30.4s103.5 10.2 151.5 30.4c46.3 19.5 87.9 47.4 123.7 83 35.7 35.6 63.8 77 83.3 123C890.7 409.1 901 459.7 901 512v0.4zM587.9 654.9c-22.4 18.7-52.6 29-85 29-32.2 0-62.3-10.2-84.6-28.7-12.8-10.6-31.7-8.8-42.2 4-10.6 12.8-8.8 31.7 4 42.2 33.1 27.4 76.8 42.5 122.9 42.5 46.4 0 90.3-15.3 123.5-43 12.7-10.6 14.4-29.5 3.8-42.3-10.7-12.6-29.6-14.3-42.4-3.7z" /></svg>